<svg width="203" height="158" viewBox="0 0 203 158" fill="none" xmlns="http://www.w3.org/2000/svg">
<path d="M161.088 34.349C161.368 37.1473 157.597 41.4614 155.677 43.2686C155.305 44.8633 155.43 47.8731 155.676 50.6013C155.596 49.6173 157.6 47.6274 158.295 46.7664C170.864 31.2009 166.151 18.4338 164.929 14.2364C163.707 10.0389 156.55 -3.0781 134.38 2.69339C116.644 7.31057 115.352 15.1108 116.923 18.4338C118.01 21.1353 119.972 22.3804 122.334 22.6855C127.557 23.3603 134.737 19.4404 138.744 16.51C144.854 30.3265 154.106 30.6763 156.55 29.6269C158.994 28.5775 160.739 30.8512 161.088 34.349Z" fill="#1C2542"/>
<path d="M98.0695 156.25H130.888C133.681 156.25 134.38 153.801 134.38 152.227C134.38 151.889 134.38 151.597 134.323 151.353C134.191 150.783 133.752 150.478 132.285 150.478H124.429H96.5542M98.0695 156.25H20.3869C17.7684 156.25 17.4192 156.25 16.7209 152.752C16.1297 149.79 6.30507 114.683 1.53355 97.4855C0.466053 93.6379 2.58086 93.6379 4.67562 93.6379C7.77645 93.6378 55.6496 93.8127 79.2162 93.6379C81.6601 93.6377 81.9744 94.0927 82.533 96.6111C82.83 97.9504 85.806 109.405 89.2714 122.67M98.0695 156.25C97.6052 154.482 97.0961 152.543 96.5542 150.478M96.5542 150.478C94.3932 142.244 91.711 132.008 89.2714 122.67M89.2714 122.67C92.7278 110.836 100.164 86.1174 102.259 81.92C104.878 76.6732 111.337 66.8792 133.158 63.5562M133.158 63.5562C133.158 76.4984 157.597 75.2741 157.597 62.157M133.158 63.5562V56.9102M157.597 62.157C169.06 61.7489 193.104 68.3832 197.573 98.1851C203.159 135.437 200.715 143.657 200.715 145.057C200.715 146.456 196.875 153.778 189.892 154.151C177.847 154.795 163.009 156.25 139.791 152.227L139.389 149.079L138.005 138.236M157.597 62.157C156.948 59.2679 156.079 55.0609 155.677 50.6141C155.676 50.6098 155.676 50.6055 155.676 50.6013M181.862 128.267C181.407 128.267 179.501 128.62 175.228 129.829M155.676 50.6013C155.43 47.8731 155.305 44.8633 155.677 43.2686C157.597 41.4614 161.368 37.1473 161.088 34.349C160.739 30.8512 158.994 28.5775 156.55 29.6269C154.106 30.6763 144.854 30.3266 138.744 16.51C134.737 19.4404 127.557 23.3603 122.334 22.6855M155.676 50.6013C155.596 49.6173 157.6 47.6274 158.295 46.7664C170.864 31.2009 166.151 18.4338 164.929 14.2364C163.707 10.0389 156.55 -3.0781 134.38 2.69339C116.644 7.31057 115.352 15.1108 116.923 18.4338C118.01 21.1353 119.972 22.3804 122.334 22.6855M133.158 56.9102C121.985 51.8733 121.287 31.995 122.334 22.6855M133.158 56.9102C135.951 58.0901 140.524 57.5748 146.25 56.0358M169.293 97.1357C169.933 104.357 172.016 121.004 175.228 129.829M175.228 129.829C173.488 130.321 171.356 130.955 168.769 131.765C157.772 135.208 144.388 136.545 137.871 137.186L138.005 138.236M138.005 138.236C135.284 138.061 128.619 135.612 119.367 133.339C117.018 132.761 115.003 132.77 112.733 132.77M102.259 146.106C101.292 147.928 99.0515 145.756 99.6406 144.182C100.816 141.042 102.957 133.339 112.733 132.77M102.259 146.106C105.401 140.64 106.798 137.186 114.304 136.792M102.259 146.106C102.259 147.505 105.177 148.826 105.925 146.936C108.02 141.645 110.638 140.64 114.828 140.64M112.733 132.77C111.802 129.508 110.534 116.969 112.209 91.3642" stroke="#1C2542" stroke-width="2.5" stroke-linecap="round" stroke-linejoin="round"/>
</svg>
